<!-- Generated by IcoMoon.io -->
<svg version="1.1" xmlns="http://www.w3.org/2000/svg" width="32" height="32" viewBox="0 0 32 32">
<title>postcss</title>
<path fill="#dc3a0d" d="M31.828 12.093c-0.49-3.459-2.213-6.301-4.775-8.501-3.63-3.122-8.056-3.859-12.716-3.51-0.318 0.025-0.61 0.299-0.871 0.261-1.227-0.172-2.365 0.191-3.484 0.534-3.281 1.011-5.684 3.166-7.541 5.983-1.532 2.333-2.645 4.813-2.41 7.706 0.025 0.35 0.019 0.687 0.477 0.75 0.305-0.254 0.362-0.598 0.394-0.966 0.044-0.521 0.051-1.068 0.203-1.564 1.043-3.395 2.689-6.422 5.5-8.71 2.302-1.863 4.915-2.842 8.043-2.829-3.033 4.12-6.072 8.087-8.653 12.379 1.392-0.782 2.028-2.295 3.262-3.465-0.242 2.664-0.286 5.131-0.064 7.598 0.051 0.623-0.121 1.278-0.127 1.927 0 0.312 0.375 0.655 0.14 0.865-0.413 0.375-0.261 0.807-0.248 1.208 0.019 0.566-0.172 0.738-0.738 0.731-1.704-0.025-3.402 0.006-5.106 0.025-0.521 0.013-1.055 0.032-1.57 0.318 0.331 0.375 0.712 0.356 1.055 0.413 1.806 0.312 3.63 0.165 5.449 0.172 5.894 0.032 11.769-0.426 17.656-0.629 1.030-0.032 2.054-0.114 3.236-0.095-0.629 1.024-1.094 2.047-1.806 2.861-1.481 1.691-3.376 2.867-5.404 3.821-1.691 0.801-3.516 0.96-5.341 1.221-0.782 0.108-1.494-0.146-2.225-0.172s-1.532-0.369-2.308-0.521c-0.896-0.172-1.583-0.757-2.403-1.075-1.593-0.627-2.956-1.521-4.096-2.64l0.002 0.002c-0.445-0.432-0.973-0.776-1.462-1.157 0.114 0.35-0.083 0.553-0.121 0.788-0.057 0.331 1.074 1.64 1.437 1.748 0.215 0.060 0.401 0.166 0.554 0.306l-0.001-0.001c2.543 2.442 5.646 3.561 9.105 3.853 0.426 0.038 0.909-0.121 1.265 0.28h0.718c0.407-0.439 0.407-0.439 1.087-0.388l-0.35 0.197 0.42 0.057c0.636-0.331 1.367-0.203 2.041-0.407 0.401-0.114 0.769-0.14 1.125-0.445 0.566-0.477 1.361-0.502 2.028-0.814 2.753-1.284 4.959-3.16 6.453-5.83 0.114-0.21 0.242-0.407 0.337-0.629 0.261-0.598 0.572-1.113 1.322-0.96 0.108-0.191 0.134-0.343 0.025-0.451-0.509-0.528-0.331-1.094-0.102-1.647 0.464-1.094 0.515-2.27 0.706-3.421 0.019-0.134-0.038-0.299 0.146-0.362v-3.020c-0.28-0.566-0.184-1.195-0.267-1.793zM15.399 1.755c1.996 2.295 3.529 4.832 5.258 7.344l-10.98 0.515zM18.387 10.681c0.458-0.127 2.709-0.292 3.020-0.216 0.496 0.127 0.629 0.528 0.642 0.979s0.032 0.954 0.051 1.431 0.025 0.954 0.044 1.424v0 0.273c-0.075-0.035-0.127-0.11-0.127-0.197 0-0.018 0.002-0.036 0.006-0.053l-0 0.002c-0.699-1.691-1.742-3.039-3.637-3.643zM13.396 10.726c-1.138 0.896-2.054 1.939-2.937 3.122v-2.931zM13.924 22.431h-3.395c0.044-0.966-0.089-1.977-0.134-2.995-0.017-0.264-0.027-0.571-0.027-0.882 0-0.271 0.008-0.541 0.022-0.809l-0.002 0.037c0.032-0.477-0.146-0.954 0.35-1.431 0.324-0.305 0.184-1.055 0.483-1.558 1.125-1.907 2.689-3.262 4.959-3.471 2.174-0.203 4.641 1.685 4.749 3.897 0.102 2.041-0.343 4.126-2.168 5.487-1.653 1.233-4.457 1.202-6.167 0.057-0.515-0.343-0.96-0.712-1.151-1.329-0.083-0.28-0.28-0.496-0.591-0.655-0.343 0.827 0.598 1.939 3.071 3.649zM18.604 22.215c1.532-0.928 2.683-2.009 3.3-3.605 0.057 1.17 0.21 2.289 0.305 3.465-1.183 0.121-2.314 0.14-3.605 0.14zM23.62 22.298c-0.032-0.051-0.064-0.095-0.089-0.146-0.020-0.036-0.042-0.080-0.060-0.125l-0.003-0.008c-0.009-0.019-0.018-0.043-0.025-0.067l-0.001-0.003c-0.017-0.039-0.031-0.084-0.038-0.131l-0-0.003c-0.010-0.035-0.019-0.079-0.025-0.123l-0-0.005c0-0.044-0.006-0.083-0.006-0.127 0-0.11 0.007-0.218 0.020-0.324l-0.001 0.013c-0.064-0.165-0.070-0.318 0.057-0.464 0.21-2.2-0.121-4.406 0.025-6.612 0.013-0.223 0-0.451 0.070-0.687 2.047 2.753 3.783 5.69 6.097 8.45-2.124 0.089-4.114-0.102-6.021 0.362zM30.506 13.861c-0.108 0.68-0.203 1.392-0.184 2.047s0 1.367-0.032 2.041c-0.025 0.401 0.083 0.852-0.407 1.138-0.267 0.153 0.388 0.649-0.305 0.82-0.121-0.013-0.159-0.229-0.261-0.375q-2.81-4.196-5.627-8.386c-0.172-0.254-0.223-0.515-0.229-0.807-0.006-0.401 0.070-0.807-0.114-1.316-0.96 0.305-1.38-0.312-1.818-0.941-1.583-2.302-3.262-4.533-4.972-6.746 1.081-0.172 3.929 0.318 5.544 0.96 0.42 0.165 0.833 0.362 1.253 0.528 1.431 0.566 2.639 1.418 3.573 2.651 0.49 0.649 1.036 1.253 1.564 1.876 0.916 1.074 1.342 2.384 1.532 3.719 0.127 0.941 0.636 1.818 0.483 2.791z"></path>
</svg>
