<svg xmlns="http://www.w3.org/2000/svg" width="230" height="66.4" viewBox="0 0 230 66.4"><defs><style>.a{fill:#1282a2;}.b{fill:#e6e6ea;}</style></defs><title>roc-logo</title><path class="a" d="M0,54.2l9.8-5v1.4L1.5,54.8h0L9.8,59v1.4L0,55.4Z"/><path class="b" d="M19.5,55.7a9.5,9.5,0,0,1,.4-2.6,5.6,5.6,0,0,1,1.2-2,3.7,3.7,0,0,1,1.7-1.3,8.5,8.5,0,0,1,2.3-.4h1.1l1,.2v-5h2V61.4H27.4V59.2A5.9,5.9,0,0,1,25.6,61a4.2,4.2,0,0,1-2.1.6,2.9,2.9,0,0,1-1.7-.4A3.7,3.7,0,0,1,20.5,60a4.8,4.8,0,0,1-.7-1.8A10.1,10.1,0,0,1,19.5,55.7Zm2-.1a5.4,5.4,0,0,0,.7,3.2,1.8,1.8,0,0,0,1.7,1.1,2.6,2.6,0,0,0,1.5-.7,9.8,9.8,0,0,0,1.8-2.1V51.6a3.5,3.5,0,0,0-1.1-.3L25,51.1a3.3,3.3,0,0,0-2.6,1.1A5.3,5.3,0,0,0,21.5,55.6Z"/><path class="b" d="M36,51.3H32.7V49.6H38V59.7h3.4v1.7H32.3V59.7H36Zm.7-6.7h.6a2.9,2.9,0,0,1,.9.9c0,.2.1.4.1.6s-.1.4-.1.6a2.1,2.1,0,0,1-.4.6l-.5.3H36.1l-.5-.3-.3-.6a1.9,1.9,0,0,1,0-1.2l.3-.5.5-.4Z"/><path class="b" d="M52.4,51.2a3.1,3.1,0,0,1,.5,1,5,5,0,0,1,.2,1.2,3.3,3.3,0,0,1-.4,1.7,3.8,3.8,0,0,1-.9,1.3,4.7,4.7,0,0,1-1.4.8,4.8,4.8,0,0,1-1.8.3H47.3l-1-.4-.4.6a1.5,1.5,0,0,0-.1.7.8.8,0,0,0,.4.7,1.8,1.8,0,0,0,1.1.3h3a6.6,6.6,0,0,1,1.5.3l1.3.5a3.9,3.9,0,0,1,.8,1,2.8,2.8,0,0,1,.3,1.3,3.6,3.6,0,0,1-1.4,2.7,3.9,3.9,0,0,1-1.7.9,9,9,0,0,1-2.5.3l-2.4-.2a5.2,5.2,0,0,1-1.5-.7,2.2,2.2,0,0,1-1-.9,5.1,5.1,0,0,1-.2-1.3,3.3,3.3,0,0,1,.3-1.5A6.8,6.8,0,0,1,45,60.6l-.5-.4-.3-.5a.8.8,0,0,1-.2-.5,1.3,1.3,0,0,1-.1-.6,3.5,3.5,0,0,1,.3-1.4l.9-1.2-.4-.5-.3-.6c-.1-.2-.1-.4-.2-.6v-.8a4.7,4.7,0,0,1,.3-1.7,3.8,3.8,0,0,1,.9-1.3,3.2,3.2,0,0,1,1.4-.8,4.8,4.8,0,0,1,1.8-.3h.8l.7.2h4.1v1.6ZM45.6,63.1a1.3,1.3,0,0,0,.8,1.3,7.1,7.1,0,0,0,2.3.3h1.6a2.3,2.3,0,0,0,1-.5,1.3,1.3,0,0,0,.6-.7,1.9,1.9,0,0,0,.2-.7,1.1,1.1,0,0,0-.6-1.1,6.1,6.1,0,0,0-1.7-.4h-3l-.6.5-.4.5c-.1.2-.1.4-.2.5Zm.6-9.7a3.7,3.7,0,0,0,.1,1.1,5.6,5.6,0,0,0,.5.8l.8.5,1,.2,1.1-.2a2,2,0,0,0,.7-.6,2.2,2.2,0,0,0,.5-.8,3,3,0,0,0,.2-1,3.6,3.6,0,0,0-.2-1,2.2,2.2,0,0,0-.5-.8l-.8-.5-1-.2-1,.2a2.4,2.4,0,0,0-.8.6,2.2,2.2,0,0,0-.5.8A2.8,2.8,0,0,0,46.2,53.4Z"/><path class="b" d="M60.1,51.3H56.8V49.6h5.3V59.7h3.4v1.7H56.4V59.7h3.7Zm.7-6.7h.6a2.9,2.9,0,0,1,.9.9c0,.2.1.4.1.6s-.1.4-.1.6a2.1,2.1,0,0,1-.4.6l-.5.3H60.2l-.5-.3-.3-.6a1.8,1.8,0,0,1,0-1.2l.3-.5.5-.4Z"/><path class="b" d="M77.5,61.3l-1.4.2H74.6a4.4,4.4,0,0,1-3.2-1,4.1,4.1,0,0,1-1-3.1V51.3H67.2V49.6h3.2V46.3l2-.5v3.8h5.1v1.7H72.4v6a2.5,2.5,0,0,0,.6,1.9,2.7,2.7,0,0,0,1.9.7h1.2l1.4-.3Z"/><path class="b" d="M87.7,61.4V59.8a4.9,4.9,0,0,1-1.9,1.4,4.5,4.5,0,0,1-2,.4,3.9,3.9,0,0,1-1.6-.2,3.5,3.5,0,0,1-1.2-.7,2.4,2.4,0,0,1-.6-1.1,3,3,0,0,1-.2-1.3,3.4,3.4,0,0,1,1.2-2.8,5.9,5.9,0,0,1,3.8-1h2.3V53.4a2.5,2.5,0,0,0-.6-1.7,2.8,2.8,0,0,0-2-.6l-1.9.2L81,52V50.1l.8-.3,1-.2,1.1-.2H85a5,5,0,0,1,1.8.2,3.7,3.7,0,0,1,1.4.7,2.7,2.7,0,0,1,.9,1.2,4.8,4.8,0,0,1,.3,1.8v8.1ZM87.4,56H84.9l-1.2.2a1.9,1.9,0,0,0-.9.4,1.8,1.8,0,0,0-.5.7,2.9,2.9,0,0,0-.2.9c0,.2.1.4.1.6a1.3,1.3,0,0,0,.4.6.9.9,0,0,0,.6.4H84a3.4,3.4,0,0,0,1.6-.4,5.5,5.5,0,0,0,1.8-1.4Z"/><path class="b" d="M96.3,46.4H92.9V44.7h5.4v15h3.4v1.7H92.5V59.7h3.8Z"/><path class="b" d="M125.3,61l-1.5.4-1.7.2a5.7,5.7,0,0,1-4.2-1.5,6.5,6.5,0,0,1-1.4-4.5,6.6,6.6,0,0,1,.4-2.5,5.6,5.6,0,0,1,1.2-2,5.9,5.9,0,0,1,1.8-1.3,8.5,8.5,0,0,1,2.3-.4h1.7l1.4.5v1.9l-1.5-.6h-1.5a4,4,0,0,0-1.5.3,2.8,2.8,0,0,0-1.1.8,4.2,4.2,0,0,0-.9,1.4,9.9,9.9,0,0,0-.2,1.8,4.5,4.5,0,0,0,1,3.3,3.3,3.3,0,0,0,2.7,1,4.1,4.1,0,0,0,1.6-.2l1.4-.5Z"/><path class="b" d="M129,49.6h1.8v2.2a7,7,0,0,1,2-1.9,3.9,3.9,0,0,1,4.6.6,6,6,0,0,1,.9,3.6h-2a3.7,3.7,0,0,0-.5-2.3,1.6,1.6,0,0,0-1.3-.7l-.8.2-.9.4-.9.9-1,1.2v7.6h-2Z"/><path class="b" d="M150.2,54.9v1.3h-8a3.7,3.7,0,0,0,1,2.8,3.8,3.8,0,0,0,2.8.9h1.9l.9-.2.8-.2v1.7l-1.8.4h-2.1a6.2,6.2,0,0,1-2.5-.4,3.6,3.6,0,0,1-1.8-1.2,4.8,4.8,0,0,1-.9-1.9,7.1,7.1,0,0,1-.4-2.6,5.9,5.9,0,0,1,.4-2.3,4.7,4.7,0,0,1,1-2,4.7,4.7,0,0,1,3.8-1.8,6.6,6.6,0,0,1,2.1.3,4.4,4.4,0,0,1,1.5,1.2,3.2,3.2,0,0,1,1,1.7A8,8,0,0,1,150.2,54.9Zm-2-.3a7.7,7.7,0,0,0-.2-1.5,3.7,3.7,0,0,0-.5-1.1,2.3,2.3,0,0,0-1-.7,2.8,2.8,0,0,0-1.3-.3l-1.2.3a2.8,2.8,0,0,0-.9.7,2.4,2.4,0,0,0-.6,1.1,4,4,0,0,0-.3,1.5Z"/><path class="b" d="M160,61.4V59.8a4.9,4.9,0,0,1-1.9,1.4,4.5,4.5,0,0,1-2,.4,3.9,3.9,0,0,1-1.6-.2,3.5,3.5,0,0,1-1.2-.7,2.4,2.4,0,0,1-.6-1.1,3,3,0,0,1-.2-1.3,3.4,3.4,0,0,1,1.2-2.8,5.9,5.9,0,0,1,3.8-1h2.4V53.4a2.6,2.6,0,0,0-.7-1.7,2.8,2.8,0,0,0-2-.6l-1.9.2-1.9.7V50.1l.8-.3,1-.2,1.1-.2h1.1a5.8,5.8,0,0,1,1.9.2,4,4,0,0,1,1.3.7,2.7,2.7,0,0,1,.9,1.2,4.8,4.8,0,0,1,.3,1.8v8.1Zm-.2-5.4h-2.5l-1.3.2a1.9,1.9,0,0,0-.9.4,1.8,1.8,0,0,0-.5.7,2.9,2.9,0,0,0-.2.9c0,.2.1.4.1.6a1.3,1.3,0,0,0,.4.6.9.9,0,0,0,.6.4h.8a3.4,3.4,0,0,0,1.6-.4,7,7,0,0,0,1.9-1.4Z"/><path class="b" d="M173.9,61.3l-1.4.2H171a3.7,3.7,0,0,1-4.2-4.1V51.3h-3.2V49.6h3.2V46.3l2-.5v3.8h5.1v1.7h-5.1v6a2.5,2.5,0,0,0,.6,1.9,2.9,2.9,0,0,0,1.9.7h1.2l1.4-.3Z"/><path class="b" d="M180.6,51.3h-3.3V49.6h5.3V59.7H186v1.7h-9.1V59.7h3.7Zm.7-6.7h.6a2.9,2.9,0,0,1,.9.9c0,.2.1.4.1.6s-.1.4-.1.6l-.4.6-.5.3h-1.2l-.5-.3-.3-.6a1.9,1.9,0,0,1,0-1.2l.3-.5.5-.4Z"/><path class="b" d="M187.8,49.6H190l2.8,7.8.6,1.9.6-1.9,2.8-7.8h2.1l-4.4,11.8h-2.3Z"/><path class="b" d="M210.5,54.9v.7c0,.2-.1.4-.1.6h-8a4.1,4.1,0,0,0,1,2.8,4.1,4.1,0,0,0,2.8.9h2l.9-.2.8-.2v1.7l-1.9.4h-2.1a6.6,6.6,0,0,1-2.5-.4,3.3,3.3,0,0,1-1.7-1.2,4.9,4.9,0,0,1-1-1.9,10.3,10.3,0,0,1-.3-2.6,8.5,8.5,0,0,1,.3-2.3,9.3,9.3,0,0,1,1-2,4.3,4.3,0,0,1,1.7-1.3,3.6,3.6,0,0,1,2.1-.5,7.8,7.8,0,0,1,2.2.3,4.4,4.4,0,0,1,1.5,1.2,3.9,3.9,0,0,1,.9,1.7A5.6,5.6,0,0,1,210.5,54.9Zm-2.1-.3a7.6,7.6,0,0,0-.1-1.5,2.4,2.4,0,0,0-.6-1.1,2,2,0,0,0-.9-.7,2.8,2.8,0,0,0-1.3-.3,2.1,2.1,0,0,0-1.2.3,1.6,1.6,0,0,0-.9.7,4.1,4.1,0,0,0-.7,1.1l-.3,1.5Z"/><path class="a" d="M16.1,32.4,11.6,22.2A4.4,4.4,0,0,0,9.8,20a4.6,4.6,0,0,0-2.7-.8H6V32.4H0V.5H9.3a23.6,23.6,0,0,1,4.8.5,9.8,9.8,0,0,1,3.6,1.5,7.8,7.8,0,0,1,2.4,2.7,10,10,0,0,1,.8,4.1,10.2,10.2,0,0,1-.5,3.2,6.1,6.1,0,0,1-1.5,2.3,6,6,0,0,1-2.2,1.6,11.5,11.5,0,0,1-2.8.9,3.9,3.9,0,0,1,2.2,1.3A14,14,0,0,1,18,21.7l5.1,10.7ZM14.6,9.9a3.6,3.6,0,0,0-1.5-3.3A7.8,7.8,0,0,0,8.6,5.5H6v9H8.4a10.3,10.3,0,0,0,2.6-.3,4.1,4.1,0,0,0,1.9-.8,4.7,4.7,0,0,0,1.3-1.5A5.9,5.9,0,0,0,14.6,9.9Z"/><path class="a" d="M26.5,5.4V.5H46.6V5.4h-7V27.5h7v4.9H26.5V27.5h7V5.4Z"/><path class="a" d="M67.6,32.4,58,17V32.4H51.9V.5H58V15.1L67.6.5h7.2L64,15.7,75.4,32.4Z"/><path class="a" d="M93.6,32.4,84,17V32.4H77.9V.5H84V15.1L93.6.5h7.2L90,15.7l11.4,16.7Z"/><path class="b" d="M127.3,16.3a23.9,23.9,0,0,1-1,7.5,14.3,14.3,0,0,1-2.8,5.2,9.9,9.9,0,0,1-4.1,3,12.5,12.5,0,0,1-5.1,1c-4.2,0-7.4-1.4-9.5-4.2s-3.2-6.8-3.2-12.2a23.7,23.7,0,0,1,1.1-7.5A14.5,14.5,0,0,1,105.4,4a10.2,10.2,0,0,1,4.2-3,12.5,12.5,0,0,1,5.1-1c4.2,0,7.3,1.4,9.4,4.2S127.3,11,127.3,16.3Zm-6.3.3q0-5.6-1.5-8.4a5.3,5.3,0,0,0-5-2.8,6.6,6.6,0,0,0-3,.7,5.8,5.8,0,0,0-2,2.1,11.1,11.1,0,0,0-1.1,3.5,21.3,21.3,0,0,0-.4,4.6c0,3.8.5,6.6,1.5,8.5a5.4,5.4,0,0,0,5,2.8,5.5,5.5,0,0,0,2.9-.8,4.7,4.7,0,0,0,2.1-2.1,9.7,9.7,0,0,0,1.1-3.4A30.6,30.6,0,0,0,121,16.6Z"/><path class="b" d="M140.6,18.9V14h11.3V31a18.3,18.3,0,0,1-4.5,1.5,28.7,28.7,0,0,1-5.2.5,18.4,18.4,0,0,1-6-1,11,11,0,0,1-4.5-3.1,14.3,14.3,0,0,1-2.9-5,24.3,24.3,0,0,1-.9-7,22.6,22.6,0,0,1,1-7.1,14.4,14.4,0,0,1,3-5.3,13.1,13.1,0,0,1,4.9-3.4A19,19,0,0,1,143.4,0a20.2,20.2,0,0,1,4.3.4,27.3,27.3,0,0,1,4.1,1V7.3a22.4,22.4,0,0,0-3.9-1.4,23,23,0,0,0-4.5-.5,9.7,9.7,0,0,0-3.9.7,8.2,8.2,0,0,0-2.9,2.3,8.9,8.9,0,0,0-1.8,3.5,17.4,17.4,0,0,0-.5,4.7,21.3,21.3,0,0,0,.4,4.6,9.3,9.3,0,0,0,1.5,3.5,7.3,7.3,0,0,0,2.7,2.2,9.6,9.6,0,0,0,4,.7h1.7l.7-.2.7-.2V18.9Z"/><path class="b" d="M178.9,16.1a20.1,20.1,0,0,1-1,6.7,13.8,13.8,0,0,1-2.8,5.2,13.7,13.7,0,0,1-5,3.3,21.8,21.8,0,0,1-7.2,1.1h-8.1V.5h9.4a17.6,17.6,0,0,1,6.4,1,10.2,10.2,0,0,1,4.6,2.8,11.2,11.2,0,0,1,2.7,4.8A21.1,21.1,0,0,1,178.9,16.1Zm-6.5.4a20.7,20.7,0,0,0-.4-4.6,9.2,9.2,0,0,0-1.4-3.5A6.7,6.7,0,0,0,168,6.3a10.2,10.2,0,0,0-4.2-.7h-3V27.4h2.6c3,0,5.2-.9,6.7-2.6S172.4,20.2,172.4,16.5Z"/><path class="b" d="M183.1,32.4V.5h19.2V5.6H189.2v7.9h12.5v5H189.2v8.9h13.1v5Z"/><path class="b" d="M222.7,32.4l-8.6-19-1.7-4.1V32.4h-5.5V.5h7.4L223,19.7l1.5,3.7V.5H230V32.4Z"/><path class="a" d="M229.8,55.4l-9.9,5V59l8.3-4.2h0l-8.3-4.2V49.2l9.9,5Z"/></svg>